<?xml version="1.0" encoding="utf-8"?>
<!-- Generator: Adobe Illustrator 16.0.0, SVG Export Plug-In . SVG Version: 6.00 Build 0)  -->
<!DOCTYPE svg PUBLIC "-//W3C//DTD SVG 1.1//EN" "http://www.w3.org/Graphics/SVG/1.1/DTD/svg11.dtd">
<svg version="1.1" xmlns="http://www.w3.org/2000/svg" xmlns:xlink="http://www.w3.org/1999/xlink" x="0px" y="0px" width="524px"
	 height="144px" viewBox="0 0 524 144" enable-background="new 0 0 524 144" xml:space="preserve">
<g id="Layer_1">
	<path d="M521,0H3C1.343,0,0,1.343,0,3v138c0,1.657,1.343,3,3,3h518c1.657,0,3-1.343,3-3V3C524,1.343,522.657,0,521,0z M519,136
		c0,1.657-1.343,3-3,3H8c-1.657,0-3-1.343-3-3V8c0-1.657,1.343-3,3-3h508c1.657,0,3,1.343,3,3V136z"/>
	<g>
		<path d="M181.804,54H176v19h5.678c6.425,0,10.708-2.009,10.708-9.731C192.386,56.472,188.229,54,181.804,54z"/>
		<path d="M377.445,53.69c-7.244,0-11.968,5.346-11.968,18.479s4.913,18.28,11.968,18.28c7.307,0,11.967-5.147,11.967-18.347
			C389.412,59.036,384.876,53.69,377.445,53.69z"/>
		<path d="M223.817,53.69c-7.244,0-11.968,5.346-11.968,18.479s4.913,18.28,11.968,18.28c7.307,0,11.968-5.147,11.968-18.347
			C235.785,59.036,231.25,53.69,223.817,53.69z"/>
		<path d="M511,10H13c-1.657,0-3,1.343-3,3v118c0,1.657,1.343,3,3,3h498c1.657,0,3-1.343,3-3V13C514,11.343,512.657,10,511,10z
			 M105.652,95.596c-10.519,0-18.141-8.249-18.141-23.56c0-15.377,8.188-23.494,18.015-23.494c5.48,0,8.566,1.584,12.031,4.487
			l-3.275,4.025c-2.708-2.31-5.354-3.365-8.377-3.365c-6.551,0-12.031,4.619-12.031,18.347c0,13.133,5.228,18.28,11.968,18.28
			c4.094,0,6.74-1.914,9.196-3.828l3.023,4.025C115.73,93.088,111.51,95.596,105.652,95.596z M141.115,95.596
			c-10.834,0-18.33-8.184-18.33-23.428c0-14.981,7.496-23.626,18.33-23.626c10.897,0,18.33,8.249,18.33,23.56
			C159.444,87.149,152.012,95.596,141.115,95.596z M181.93,78H176v17h-6V49h11.867c10.456,0,16.881,4.601,16.881,14.17
			C198.748,73.597,191.504,78,181.93,78z M223.817,95.596c-10.834,0-18.33-8.184-18.33-23.428c0-14.981,7.496-23.626,18.33-23.626
			c10.897,0,18.33,8.249,18.33,23.56C242.146,87.149,234.714,95.596,223.817,95.596z M262.87,95.596
			c-6.236,0-11.149-2.178-14.739-5.874l3.338-3.894c3.212,2.838,6.614,4.62,11.338,4.62c5.102,0,9.322-2.64,9.322-8.117
			c0-4.422-2.016-6.401-9.385-8.777c-8.44-2.706-12.85-6.071-12.85-13.133c0-6.995,5.669-11.879,13.668-11.879
			c5.984,0,9.763,1.848,13.417,5.279l-3.275,3.828c-3.275-2.772-6.299-3.96-9.889-3.96c-4.346,0-7.811,2.111-7.811,6.467
			c0,3.828,1.701,5.676,9.511,8.184c6.929,2.244,12.85,5.082,12.85,13.793C278.365,90.052,272.633,95.596,262.87,95.596z M294,95h-6
			V49h6V95z M333.29,55H321v40h-6V55h-12v-6h30.92L333.29,55z M348,95h-6V49h6V95z M377.445,95.596
			c-10.834,0-18.33-8.184-18.33-23.428c0-14.981,7.496-23.626,18.33-23.626c10.896,0,18.329,8.249,18.329,23.56
			C395.774,87.149,388.341,95.596,377.445,95.596z M437,95h-7.78l-17.837-38.704C411.697,60.058,412,65.502,412,73.95V95h-5V49
			h7.607l18.019,38.839C432.499,86.783,432,79.692,432,74.148V49h5V95z"/>
		<path d="M141.115,53.69c-7.244,0-11.968,5.346-11.968,18.479s4.913,18.28,11.968,18.28c7.307,0,11.968-5.147,11.968-18.347
			C153.083,59.036,148.547,53.69,141.115,53.69z"/>
	</g>
</g>
<g id="Layer_2" display="none">
</g>
</svg>
