<?xml version="1.0" encoding="utf-8"?>
<!-- Generator: Adobe Illustrator 21.0.1, SVG Export Plug-In . SVG Version: 6.00 Build 0)  -->
<!DOCTYPE svg PUBLIC "-//W3C//DTD SVG 1.1//EN" "http://www.w3.org/Graphics/SVG/1.1/DTD/svg11.dtd">
<svg version="1.1" id="Layer_1" xmlns="http://www.w3.org/2000/svg" xmlns:xlink="http://www.w3.org/1999/xlink" x="0px" y="0px"
	 viewBox="0 0 470.9 178.6" style="enable-background:new 0 0 470.9 178.6;" xml:space="preserve">
<style type="text/css">
	.st0{fill:#FFFFFF;stroke:url(#SVGID_1_);stroke-width:7;stroke-miterlimit:10;}
	.st1{fill:#010202;}
	.st2{fill:url(#SVGID_2_);}
	.st3{fill:url(#SVGID_3_);}
	.st4{fill-rule:evenodd;clip-rule:evenodd;fill:#FFFFFF;}
</style>
<linearGradient id="SVGID_1_" gradientUnits="userSpaceOnUse" x1="90.8911" y1="88.5676" x2="467.8911" y2="88.5676">
	<stop  offset="0" style="stop-color:#5F9FD7"/>
	<stop  offset="1" style="stop-color:#68BEEC"/>
</linearGradient>
<path class="st0" d="M454.4,153.6h-350c-5.5,0-10-4.5-10-10v-110c0-5.5,4.5-10,10-10h350c5.5,0,10,4.5,10,10v110
	C464.4,149.1,459.9,153.6,454.4,153.6z"/>
<g>
	<path d="M182.7,93.9v10.3h22.9v8.9h-22.9v10.5h26.2v8.9H172V85h36.1v8.9H182.7z"/>
	<path d="M253.4,109.6v22.9H243v-19.9c0-4.6-2.7-7.5-7.2-7.5c-5.2,0.1-8.3,4-8.3,9.4v18H217V96h10.4v6.4c2.6-4.5,6.9-6.7,12.6-6.8
		C248.2,95.6,253.4,101,253.4,109.6z"/>
	<path d="M283.6,128.2c-2.4,3-6.4,4.7-11.5,4.7c-7.8,0-12.5-4.7-12.5-11.4c0-6.8,4.9-10.9,13.9-11h10v-0.7c0-3.9-2.6-6.1-7.6-6.1
		c-3.3,0-7,1.1-10.8,3.2l-3.3-7.2c5.4-2.7,10.1-4.2,16.5-4.2c9.8,0,15.4,4.9,15.5,13.1l0.1,23.8h-10.2V128.2z M283.5,120v-3.3h-8.2
		c-4,0-6,1.2-6,4.1c0,2.8,2.2,4.6,5.7,4.6C279.4,125.5,282.9,123.1,283.5,120z"/>
	<path d="M342.3,114.4c0,11-6.7,18.4-16.9,18.4c-5.1,0-9.1-2-11.7-5.7v5.3h-10.4V82.2h10.4v19.2c2.6-3.7,6.6-5.7,11.5-5.7
		C335.3,95.7,342.3,103.2,342.3,114.4z M331.7,114.1c0-5.8-3.7-10-9-10c-5.4,0-9.1,4.1-9.1,10c0,6,3.7,10.1,9.1,10.1
		C328,124.2,331.7,120.1,331.7,114.1z"/>
	<path d="M349.4,132.5V82.2h10.4v50.3H349.4z"/>
	<path d="M403.9,117.4h-26.2c1.2,4.6,4.7,7.3,9.4,7.3c3.5,0,6.7-1.4,9.2-3.9l5.5,5.6c-3.7,4.1-9,6.4-15.6,6.4
		c-11.7,0-19-7.5-19-18.5c0-11.2,7.7-18.7,18.8-18.7C398.8,95.7,404.7,104.1,403.9,117.4z M394.1,111.2c-0.1-4.8-3.3-7.9-8.1-7.9
		c-4.6,0-7.7,3.1-8.5,7.9H394.1z"/>
	<path d="M446.8,132.5h-10.4v-5.4c-2.6,3.7-6.5,5.8-11.5,5.8c-10.4,0-17.2-7.5-17.2-18.8c0-11.1,6.8-18.5,16.9-18.5
		c5.1,0,9.1,2,11.8,5.8V82.2h10.4V132.5z M436.4,114.4c0-6-3.7-10.1-9.1-10.1c-5.4,0-9.1,4.2-9.2,10.1c0.1,6,3.7,10.1,9.2,10.1
		C432.7,124.5,436.4,120.3,436.4,114.4z"/>
</g>
<g>
	<path class="st1" d="M192.2,48.4l-3.9,4.6c-1.4-1.8-3.6-3-5.5-3c-3.1,0-5.5,2.5-5.5,5.9c0,3.4,2.4,5.9,5.5,5.9c1.8,0,3.9-1,5.5-2.7
		l3.9,4.2c-2.5,2.7-6.3,4.4-9.7,4.4c-7,0-12.1-5-12.1-11.8c0-6.7,5.2-11.6,12.3-11.6C186.2,44.4,189.9,45.9,192.2,48.4z"/>
	<path class="st1" d="M212.4,58.6c0,5.5-3.9,9.1-9.9,9.1s-9.9-3.6-9.9-9.1c0-5.5,3.9-9.1,9.9-9.1S212.4,53.1,212.4,58.6z
		 M199.3,58.7c0,2.4,1.3,4,3.2,4c1.9,0,3.2-1.6,3.2-4c0-2.4-1.3-4-3.2-4C200.6,54.7,199.3,56.3,199.3,58.7z"/>
	<path class="st1" d="M234.9,58.7c0,5.5-3.2,9-8.1,9c-2.1,0-3.8-0.8-5-2.3v8.4h-6.6V49.7h6.6v2.1c1.2-1.5,2.9-2.3,4.9-2.3
		C231.7,49.5,234.9,53.1,234.9,58.7z M228.2,58.5c0-2.4-1.3-4-3.2-4c-1.9,0-3.2,1.6-3.2,4c0,2.4,1.3,4,3.2,4
		C227,62.5,228.2,60.9,228.2,58.5z"/>
	<path class="st1" d="M256,58.6c0,5.5-3.9,9.1-9.9,9.1s-9.9-3.6-9.9-9.1c0-5.5,3.9-9.1,9.9-9.1S256,53.1,256,58.6z M242.8,58.7
		c0,2.4,1.3,4,3.2,4c1.9,0,3.2-1.6,3.2-4c0-2.4-1.3-4-3.2-4C244.1,54.7,242.8,56.3,242.8,58.7z"/>
	<path class="st1" d="M273.3,51.6l-2.2,4.2c-2.4-1.2-4.4-1.9-5.8-1.9c-0.8,0-1.3,0.3-1.3,0.9c0,2,9.3,1.1,9.3,7.2
		c0,3.7-3.2,5.9-7.8,5.9c-3.1,0-6.1-0.9-8.4-2.5l2-4.2c2.2,1.4,4.5,2.2,6.5,2.2c0.9,0,1.5-0.3,1.5-0.8c0-2-9.1-1-9.1-7.1
		c0-3.7,3.1-6,7.6-6C268.2,49.4,270.9,50.2,273.3,51.6z"/>
	<path class="st1" d="M282.9,44.6c0,2-1.4,3.4-3.4,3.4c-2,0-3.4-1.4-3.4-3.4c0-2,1.4-3.4,3.4-3.4C281.4,41.2,282.9,42.6,282.9,44.6z
		 M276.1,67.5V49.7h6.6v17.8H276.1z"/>
	<path class="st1" d="M298.9,66.7c-1.2,0.7-3.1,1.1-4.9,1.1c-3.8,0-6.4-2.2-6.4-5.9v-7.1h-2.5v-4.2h2.5v-4.9h6.6v4.9h4.4v4.2h-4.4
		v6.1c0,1.1,0.6,1.7,1.5,1.7c0.5,0,1.2-0.2,2-0.5L298.9,66.7z"/>
	<path class="st1" d="M308.2,44.6c0,2-1.4,3.4-3.4,3.4c-2,0-3.4-1.4-3.4-3.4c0-2,1.4-3.4,3.4-3.4C306.8,41.2,308.2,42.6,308.2,44.6z
		 M301.4,67.5V49.7h6.6v17.8H301.4z"/>
	<path class="st1" d="M330.5,58.6c0,5.5-3.9,9.1-9.9,9.1s-9.9-3.6-9.9-9.1c0-5.5,3.9-9.1,9.9-9.1S330.5,53.1,330.5,58.6z
		 M317.3,58.7c0,2.4,1.3,4,3.2,4c1.9,0,3.2-1.6,3.2-4c0-2.4-1.3-4-3.2-4C318.6,54.7,317.3,56.3,317.3,58.7z"/>
	<path class="st1" d="M351.8,56.2v11.3h-6.6v-9.4c0-1.8-1-2.9-2.6-2.9c-1.8,0-2.9,1.4-2.9,3.5v8.8h-6.6V49.7h6.6v2.8
		c1.2-2,3.2-3,5.7-3C349.2,49.4,351.8,52.1,351.8,56.2z"/>
</g>
<linearGradient id="SVGID_2_" gradientUnits="userSpaceOnUse" x1="376.5609" y1="59.6867" x2="433.0913" y2="59.6867">
	<stop  offset="0" style="stop-color:#5F9FD7"/>
	<stop  offset="1" style="stop-color:#68BEEC"/>
</linearGradient>
<path class="st2" d="M377,63.2c-0.6-0.6-0.6-1.6,0-2.3l7.4-7.4c0.6-0.6,1.6-0.6,2.3,0l9,9c0.6,0.6,1.6,0.6,2.3,0l25-25
	c0.6-0.6,1.6-0.6,2.3,0l7.4,7.3c0.6,0.6,0.6,1.6,0,2.3l-34.7,34.7c-0.6,0.6-1.6,0.6-2.3,0L377,63.2z"/>
<linearGradient id="SVGID_3_" gradientUnits="userSpaceOnUse" x1="135.9932" y1="18.4633" x2="135.9932" y2="-155.041" gradientTransform="matrix(0.8636 -0.5042 0.5042 0.8636 -2.4819 214.8028)">
	<stop  offset="0" style="stop-color:#5F9FD7"/>
	<stop  offset="1" style="stop-color:#68BEEC"/>
</linearGradient>
<path class="st3" d="M97.6,6L145,33.1c10.2,5.8,16.5,16.6,16.6,28.4l0.3,54.6c0.1,11.7-6.2,22.6-16.3,28.5l-47.1,27.5
	c-10.1,5.9-22.7,6-32.8,0.2l-47.4-27.1C8,139.3,1.7,128.5,1.6,116.8L1.4,62.2C1.3,50.5,7.5,39.6,17.7,33.7L64.8,6.2
	C74.9,0.3,87.4,0.2,97.6,6z"/>
<path class="st4" d="M83.7,46.5l28.6,59.1c0.4,0.9,0.3,1.9-0.4,2.6c-0.7,0.7-1.6,0.9-2.6,0.6L82.5,98.4c-0.6-0.2-1.1-0.2-1.7,0
	l-26.9,10.4c-0.9,0.4-1.9,0.1-2.6-0.6c-0.7-0.7-0.8-1.7-0.4-2.6l28.6-59.1c0.4-0.8,1.2-1.3,2.1-1.3C82.5,45.2,83.3,45.7,83.7,46.5z"
	/>
</svg>
