<?xml version="1.0" encoding="utf-8"?>
<!-- Generator: Adobe Illustrator 16.0.0, SVG Export Plug-In . SVG Version: 6.00 Build 0)  -->
<!DOCTYPE svg PUBLIC "-//W3C//DTD SVG 1.1//EN" "http://www.w3.org/Graphics/SVG/1.1/DTD/svg11.dtd">
<svg version="1.1" id="Layer_1" xmlns="http://www.w3.org/2000/svg" xmlns:xlink="http://www.w3.org/1999/xlink" x="0px" y="0px"
	 width="160.478px" height="174.838px" viewBox="60.882 54.618 160.478 174.838"
	 enable-background="new 60.882 54.618 160.478 174.838" xml:space="preserve">
<g>
	<g>
		<defs>
			<path id="SVGID_1_" d="M124.301,59.097L77.169,86.611c-10.134,5.917-16.342,16.79-16.286,28.524l0.262,54.574
				c0.057,11.734,6.369,22.547,16.559,28.365l47.394,27.061c10.19,5.818,22.71,5.759,32.845-0.157l47.133-27.515
				c10.133-5.916,16.342-16.787,16.284-28.521l-0.263-54.576c-0.057-11.734-6.367-22.546-16.559-28.365l-47.396-27.06
				c-5.047-2.883-10.667-4.322-16.285-4.322C135.137,54.618,129.415,56.112,124.301,59.097"/>
		</defs>
		<clipPath id="SVGID_2_">
			<use xlink:href="#SVGID_1_"  overflow="visible"/>
		</clipPath>
		
			<linearGradient id="SVGID_3_" gradientUnits="userSpaceOnUse" x1="-399.5093" y1="818.8452" x2="-398.5089" y2="818.8452" gradientTransform="matrix(-87.4724 -149.8409 149.8409 -87.4724 -157459.1719 11978.8359)">
			<stop  offset="0" style="stop-color:#5F9FD7"/>
			<stop  offset="1" style="stop-color:#68BEEC"/>
		</linearGradient>
		<polygon clip-path="url(#SVGID_2_)" fill="url(#SVGID_3_)" points="101.644,300.873 -15.948,99.437 180.6,-15.302 
			298.192,186.134 		"/>
	</g>
</g>
<g>
	<g>
		<defs>
			<rect id="SVGID_4_" width="283.46" height="283.46"/>
		</defs>
		<clipPath id="SVGID_5_">
			<use xlink:href="#SVGID_4_"  overflow="visible"/>
		</clipPath>
		<path clip-path="url(#SVGID_5_)" fill="#FFFFFF" d="M143.438,99.458l28.567,59.088c0.433,0.887,0.279,1.892-0.389,2.604
			c-0.662,0.719-1.648,0.945-2.558,0.594l-26.892-10.422c-0.566-0.217-1.128-0.218-1.691-0.004l-26.889,10.417
			c-0.911,0.353-1.899,0.119-2.56-0.592c-0.666-0.722-0.819-1.729-0.392-2.606l28.594-59.076c0.397-0.83,1.184-1.324,2.105-1.32
			C142.25,98.138,143.041,98.635,143.438,99.458"/>
	</g>
</g>
</svg>
