<?xml version="1.0" encoding="utf-8"?>
<!-- Generator: Adobe Illustrator 16.0.0, SVG Export Plug-In . SVG Version: 6.00 Build 0)  -->
<!DOCTYPE svg PUBLIC "-//W3C//DTD SVG 1.1//EN" "http://www.w3.org/Graphics/SVG/1.1/DTD/svg11.dtd">
<svg version="1.1" id="Layer_1" xmlns="http://www.w3.org/2000/svg" xmlns:xlink="http://www.w3.org/1999/xlink" x="0px" y="0px"
	 width="809.062px" height="144px" viewBox="0 0 809.062 144" enable-background="new 0 0 809.062 144" xml:space="preserve">
<path fill-opacity="0.8" d="M804.062,0H5C2.239,0,0,2.239,0,5v134c0,2.762,2.239,5,5,5h799.062c2.762,0,5-2.238,5-5V5
	C809.062,2.239,806.824,0,804.062,0z M804,134c0,2.762-2.238,5-5,5H10.062c-2.761,0-5-2.238-5-5V10c0-2.761,2.239-5,5-5H799
	c2.762,0,5,2.239,5,5V134z"/>
<g>
	<path fill-opacity="0.8" d="M469.545,54.195c-7.511,0-12.408,5.29-12.408,18.286c0,12.996,5.094,18.09,12.408,18.09
		c7.575,0,12.408-5.094,12.408-18.156C481.953,59.484,477.251,54.195,469.545,54.195z"/>
	<path fill-opacity="0.8" d="M622.282,54.195c-7.511,0-12.409,5.29-12.409,18.286c0,12.996,5.095,18.09,12.409,18.09
		c7.575,0,12.408-5.094,12.408-18.156C634.69,59.484,629.988,54.195,622.282,54.195z"/>
	<path fill-opacity="0.8" d="M427.295,54.717h-5.551V73.46h5.42c6.662,0,11.103-1.959,11.103-9.6C438.267,57.134,433.956,54.717,427.295,54.717z"/>
	<path fill-opacity="0.8" d="M386.418,54.195c-7.51,0-12.408,5.29-12.408,18.286c0,12.996,5.094,18.09,12.408,18.09c7.576,0,12.408-5.094,12.408-18.156
		C398.826,59.484,394.125,54.195,386.418,54.195z"/>
	<polygon fill-opacity="0.8" points="182.744,78.555 196.785,78.555 189.797,55.044 	"/>
	<path fill-opacity="0.8" d="M794.062,10.062H15c-2.761,0-5,2.239-5,5v114c0,2.762,2.239,5,5,5h779.062c2.762,0,5-2.238,5-5v-114
		C799.062,12.301,796.824,10.062,794.062,10.062z M116.012,94.881h-7.968L99.75,57.199l-8.359,37.683h-7.771l-9.143-44.997h6.074
		l7.249,39.577l8.686-39.577h6.596l8.882,39.577l7.51-39.577h5.682L116.012,94.881z M164.659,94.881h-6.204V73.787h-18.939v21.094
		h-6.204V49.884h6.204v18.809h18.939V49.884h6.204V94.881z M201.683,94.881l-3.396-11.298h-17.045l-3.396,11.298h-6.27
		l14.433-44.997h7.837l14.368,44.997H201.683z M237.795,55.174h-12.474v39.707h-6.204V55.174h-12.8v-5.29h32.131L237.795,55.174z
		 M269.137,94.881h-6.204V49.884h6.204V94.881z M292.581,95.665c-6.465,0-11.559-2.155-15.282-5.812L280.76,86
		c3.331,2.808,6.857,4.572,11.756,4.572c5.29,0,9.665-2.612,9.665-8.033c0-4.375-2.09-6.335-9.73-8.686
		c-8.751-2.678-13.323-6.009-13.323-12.997c0-6.922,5.877-11.755,14.171-11.755c6.205,0,10.123,1.829,13.911,5.225l-3.396,3.788
		c-3.396-2.743-6.531-3.918-10.253-3.918c-4.506,0-8.099,2.09-8.099,6.4c0,3.788,1.764,5.617,9.862,8.098
		c7.184,2.221,13.323,5.029,13.323,13.649C308.646,90.179,302.703,95.665,292.581,95.665z M350.959,95.665
		c-10.906,0-18.809-8.164-18.809-23.315c0-15.216,8.49-23.25,18.678-23.25c5.682,0,8.882,1.567,12.474,4.441l-3.396,3.984
		c-2.808-2.286-5.551-3.331-8.686-3.331c-6.792,0-12.474,4.571-12.474,18.155c0,12.997,5.42,18.09,12.408,18.09
		c4.245,0,6.988-1.894,9.535-3.788l3.135,3.984C361.409,93.184,357.033,95.665,350.959,95.665z M386.418,95.665
		c-11.232,0-19.004-8.098-19.004-23.184c0-14.825,7.772-23.38,19.004-23.38c11.299,0,19.005,8.164,19.005,23.315
		C405.423,87.306,397.717,95.665,386.418,95.665z M427.426,78.358h-5.682v16.523h-6.205V49.884h11.821
		c10.841,0,17.502,4.441,17.502,13.911C444.862,74.113,437.353,78.358,427.426,78.358z M469.545,95.665
		c-11.233,0-19.005-8.098-19.005-23.184c0-14.825,7.771-23.38,19.005-23.38c11.298,0,19.004,8.164,19.004,23.315
		C488.549,87.306,480.843,95.665,469.545,95.665z M508.725,95.665c-6.466,0-11.56-2.155-15.282-5.812L496.903,86
		c3.331,2.808,6.857,4.572,11.756,4.572c5.29,0,9.665-2.612,9.665-8.033c0-4.375-2.09-6.335-9.73-8.686
		c-8.751-2.678-13.323-6.009-13.323-12.997c0-6.922,5.878-11.755,14.172-11.755c6.204,0,10.123,1.829,13.911,5.225l-3.396,3.788
		c-3.396-2.743-6.53-3.918-10.253-3.918c-4.507,0-8.099,2.09-8.099,6.4c0,3.788,1.764,5.617,9.861,8.098
		c7.185,2.221,13.323,5.029,13.323,13.649C524.79,90.179,518.847,95.665,508.725,95.665z M540.134,94.881h-6.204V49.884h6.204
		V94.881z M579.119,55.174h-12.474v39.707h-6.204V55.174h-12.801v-5.29h32.132L579.119,55.174z M593.157,94.881h-6.204V49.884h6.204
		V94.881z M622.282,95.665c-11.233,0-19.005-8.098-19.005-23.184c0-14.825,7.771-23.38,19.005-23.38
		c11.298,0,19.004,8.164,19.004,23.315C641.286,87.306,633.58,95.665,622.282,95.665z M682.946,94.881h-8.294l-18.286-38.205
		c0.326,3.723,0.849,9.208,0.849,17.568v20.637h-5.812V49.884h8.099l18.482,38.271c-0.131-1.045-0.85-8.229-0.85-13.715V49.884
		h5.812V94.881z M702.86,95.665c-2.547,0-4.506-2.024-4.506-4.571c0-2.482,1.959-4.506,4.506-4.506c2.612,0,4.572,2.024,4.572,4.506
		C707.433,93.641,705.473,95.665,702.86,95.665z M705.669,76.922v2.938h-5.943v-3.265c0-10.972,11.494-9.861,11.494-16.915
		c0-3.592-2.547-5.617-6.596-5.617c-3.266,0-6.4,1.437-9.078,4.702l-4.114-3.2c3.723-4.376,8.164-6.466,13.584-6.466
		c8.229,0,12.474,4.963,12.474,10.188C717.489,69.738,705.669,68.366,705.669,76.922z"/>
</g>
</svg>
