<?xml version="1.0" standalone="no"?>
<!DOCTYPE svg PUBLIC "-//W3C//DTD SVG 20010904//EN"
 "http://www.w3.org/TR/2001/REC-SVG-20010904/DTD/svg10.dtd">
<svg version="1.0" xmlns="http://www.w3.org/2000/svg"
 width="16.000000pt" height="16.000000pt" viewBox="0 0 16.000000 16.000000"
 preserveAspectRatio="xMidYMid meet">
<metadata>
Created by potrace 1.11, written by Peter Selinger 2001-2013
</metadata>
<g transform="translate(0.000000,16.000000) scale(0.002192,-0.002192)"
fill="#000000" stroke="none">
<path d="M3568 7295 c-2 -1 -32 -5 -68 -8 -172 -15 -362 -77 -545 -179 -89
-50 -380 -218 -445 -258 -40 -24 -421 -246 -460 -268 -25 -14 -56 -32 -70 -41
-51 -33 -65 -41 -80 -48 -8 -4 -60 -34 -115 -66 -55 -33 -113 -67 -130 -77
-68 -39 -402 -234 -430 -251 -16 -11 -37 -22 -45 -26 -8 -3 -32 -17 -53 -31
-22 -13 -60 -35 -85 -49 -245 -134 -465 -359 -585 -598 -32 -65 -90 -218 -102
-268 -9 -39 -23 -111 -32 -157 -14 -79 -4 -2583 11 -2650 3 -13 8 -42 11 -65
4 -22 11 -58 17 -80 6 -22 11 -44 13 -50 1 -5 4 -14 5 -20 10 -38 58 -153 91
-219 98 -193 240 -360 414 -486 63 -45 383 -233 747 -438 18 -11 98 -56 178
-102 80 -45 165 -94 190 -108 25 -13 50 -28 55 -32 6 -4 35 -21 65 -38 43 -23
501 -285 710 -405 212 -121 392 -206 475 -221 17 -3 48 -10 70 -16 73 -19 139
-25 295 -25 216 0 323 19 503 91 107 43 101 39 545 299 51 30 345 202 360 210
9 6 60 35 112 65 52 30 103 60 113 65 123 70 328 191 349 206 15 11 29 19 32
19 3 0 29 14 58 32 75 44 319 187 473 276 72 41 163 98 204 126 87 59 238 205
303 291 55 74 142 223 165 284 9 25 20 51 24 56 10 14 45 135 66 230 17 75 18
159 16 1325 -1 685 -4 1270 -7 1300 -13 146 -27 216 -70 353 -36 112 -146 315
-225 412 -95 116 -267 262 -391 333 -19 10 -75 43 -125 72 -49 29 -112 65
-140 80 -109 61 -391 221 -405 229 -14 9 -492 283 -535 307 -11 6 -36 20 -55
31 -116 66 -535 305 -585 334 -33 19 -67 39 -76 44 -85 53 -296 146 -360 159
-13 3 -39 9 -58 15 -53 16 -185 32 -293 35 -54 2 -99 2 -100 1z"/>
</g>
</svg>
