<?xml version="1.0" encoding="utf-8"?>
<!-- Generator: Adobe Illustrator 16.0.0, SVG Export Plug-In . SVG Version: 6.00 Build 0)  -->
<!DOCTYPE svg PUBLIC "-//W3C//DTD SVG 1.1//EN" "http://www.w3.org/Graphics/SVG/1.1/DTD/svg11.dtd">
<svg version="1.1" id="Layer_1" xmlns="http://www.w3.org/2000/svg" xmlns:xlink="http://www.w3.org/1999/xlink" x="0px" y="0px"
	 width="637px" height="144px" viewBox="0 0 637 144" enable-background="new 0 0 637 144" xml:space="preserve">
<path d="M633.353,0H3.647C1.633,0,0,1.343,0,3v138c0,1.657,1.633,3,3.647,3h629.706c2.015,0,3.647-1.343,3.647-3
	V3C637,1.343,635.367,0,633.353,0z M632,136c0,1.657-1.766,3-3.787,3H8.787C6.767,139,5,137.657,5,136V8c0-1.657,1.767-3,3.787-3
	h619.426C630.234,5,632,6.343,632,8V136z"/>
<path d="M485.944,54.281c-7.243,0-11.967,5.346-11.967,18.479s4.913,18.28,11.967,18.28
	c7.307,0,11.968-5.147,11.968-18.347C497.912,59.626,493.377,54.281,485.944,54.281z"/>
<path d="M290.304,55H285v19h5.178c6.425,0,10.708-2.009,10.708-9.731C300.886,57.472,296.729,55,290.304,55z"/>
<path d="M249.614,54.281c-7.244,0-11.968,5.346-11.968,18.479s4.913,18.28,11.968,18.28
	c7.307,0,11.968-5.147,11.968-18.347C261.582,59.626,257.047,54.281,249.614,54.281z"/>
<path d="M332.317,54.281c-7.244,0-11.968,5.346-11.968,18.479s4.913,18.28,11.968,18.28
	c7.307,0,11.968-5.147,11.968-18.347C344.285,59.626,339.75,54.281,332.317,54.281z"/>
<path d="M623.073,10H13.927C11.9,10,10,11.343,10,13v118c0,1.657,1.9,3,3.927,3h609.146
	c2.026,0,3.927-1.343,3.927-3V13C627,11.343,625.1,10,623.073,10z M121.64,77.986c-5.207,4.088-10.127,8.572-15.312,12.68
	c-1.748,1.385-3.483,2.817-5.18,4.264c-0.664,0.566-1.148,0.591-1.822,0.022c-4.887-4.131-9.788-8.35-14.708-12.441
	C81.395,79.831,78.133,77,74.356,74c17.489,0,34.261,0,51.256,0C124.826,76,122.977,76.938,121.64,77.986z M129.738,69.671
	c-5.448-4.649-10.989-9.228-16.516-13.784C110.507,53.65,107.655,52,105.193,49c17.015,0,34.029,0,51.043,0
	c-5.296,5-10.583,8.911-15.894,13.323c-2.905,2.414-5.963,4.662-8.707,7.275C131.162,70.051,130.606,70.412,129.738,69.671z
	 M162.277,94.764c-0.846,0.71-1.361,0.692-2.186,0.002c-6.32-5.283-12.677-10.507-19.038-15.742
	c-1.298-1.067-2.688-2.016-3.983-3.087c-0.453-0.374-1.241-0.734-1.07-1.402c0.213-0.83,1.071-0.451,1.617-0.453
	C152.246,74.056,166.875,74,181.503,74c1.623,0,3.247,0,5.59,0C178.425,81,170.333,88.002,162.277,94.764z M214.151,96.187
	c-10.519,0-18.141-8.249-18.141-23.56c0-15.377,8.188-23.494,18.015-23.494c5.48,0,8.566,1.584,12.031,4.487l-3.275,4.025
	c-2.708-2.31-5.354-3.365-8.377-3.365c-6.551,0-12.031,4.619-12.031,18.347c0,13.133,5.228,18.28,11.968,18.28
	c4.094,0,6.74-1.914,9.196-3.828l3.023,4.025C224.229,93.679,220.009,96.187,214.151,96.187z M249.614,96.187
	c-10.834,0-18.33-8.184-18.33-23.428c0-14.981,7.496-23.626,18.33-23.626c10.897,0,18.33,8.249,18.33,23.56
	C267.944,87.74,260.511,96.187,249.614,96.187z M290.43,79H285v16h-6V50h11.367c10.456,0,16.881,4.601,16.881,14.17
	C307.248,74.597,300.004,79,290.43,79z M332.317,96.187c-10.834,0-18.33-8.184-18.33-23.428c0-14.981,7.496-23.626,18.33-23.626
	c10.897,0,18.33,8.249,18.33,23.56C350.646,87.74,343.214,96.187,332.317,96.187z M371.37,96.187
	c-6.236,0-11.149-2.178-14.739-5.874l3.338-3.894c3.212,2.838,6.614,4.62,11.338,4.62c5.102,0,9.322-2.64,9.322-8.117
	c0-4.422-2.016-6.401-9.385-8.777c-8.44-2.706-12.85-6.071-12.85-13.133c0-6.995,5.669-11.879,13.668-11.879
	c5.984,0,9.763,1.848,13.417,5.279l-3.275,3.828c-3.275-2.772-6.299-3.96-9.889-3.96c-4.346,0-7.811,2.111-7.811,6.467
	c0,3.828,1.701,5.676,9.511,8.184c6.929,2.244,12.85,5.082,12.85,13.793C386.865,90.643,381.133,96.187,371.37,96.187z M403,95h-6
	V50h6V95z M441.79,55H430v40h-6V55h-13v-5h31.42L441.79,55z M457,95h-6V50h6V95z M485.944,96.187
	c-10.833,0-18.329-8.184-18.329-23.428c0-14.981,7.496-23.626,18.329-23.626c10.896,0,18.33,8.249,18.33,23.56
	C504.274,87.74,496.841,96.187,485.944,96.187z M546,95h-8.28l-17.587-38.409c0.314,3.762,0.867,9.502,0.867,17.95V95h-6V50h8.106
	l17.77,38.635C540.749,87.579,540,80.283,540,74.739V50h6V95z"/>
</svg>
