<?xml version="1.0" encoding="utf-8"?>
<!-- Generator: Adobe Illustrator 16.0.0, SVG Export Plug-In . SVG Version: 6.00 Build 0)  -->
<!DOCTYPE svg PUBLIC "-//W3C//DTD SVG 1.1//EN" "http://www.w3.org/Graphics/SVG/1.1/DTD/svg11.dtd">
<svg version="1.1" id="Layer_1" xmlns="http://www.w3.org/2000/svg" xmlns:xlink="http://www.w3.org/1999/xlink" x="0px" y="0px"
	 width="621px" height="129px" viewBox="0 0 621 129" enable-background="new 0 0 621 129" xml:space="preserve">
<path d="M618.269,0H2.731C1.223,0,0,1.343,0,3v123c0,1.657,1.223,3,2.731,3h615.537c1.509,0,2.731-1.343,2.731-3V3
	C621,1.343,619.777,0,618.269,0z M611,117c0,1.657-1.238,3-2.748,3H12.748c-1.509,0-2.748-1.343-2.748-3V12c0-1.657,1.239-3,2.748-3
	h595.504c1.51,0,2.748,1.343,2.748,3V117z"/>
<g>
	<path d="M256.303,40.906c-9.016,0-14.076,6.532-14.076,23.184c0,16.65,5.244,23.183,14.076,23.183
		c9.107,0,13.983-6.532,13.983-23.183C270.286,47.438,265.411,40.906,256.303,40.906z"/>
	<path d="M474.616,40.906c-9.016,0-14.075,6.532-14.075,23.184c0,16.65,5.244,23.183,14.075,23.183
		c9.107,0,13.983-6.532,13.983-23.183C488.6,47.438,483.724,40.906,474.616,40.906z"/>
	<path d="M137.993,40.906c-9.016,0-14.076,6.532-14.076,23.184c0,16.65,5.244,23.183,14.076,23.183
		c9.107,0,13.983-6.532,13.983-23.183C151.976,47.438,147.101,40.906,137.993,40.906z"/>
	<path d="M195.953,42H190v22h6.137c7.452,0,12.143-2.721,12.143-11.369C208.28,45.18,203.865,42,195.953,42z"/>
	<path d="M599.588,19H20.473C18.964,19,18,20.343,18,22v85c0,1.657,0.964,3,2.473,3h579.115c1.509,0,3.412-1.343,3.412-3V22
		C603,20.343,601.097,19,599.588,19z M87.484,97.392c-16.927,0-28.519-11.684-28.519-33.394c0-21.436,12.235-33.211,28.151-33.211
		c8.463,0,13.983,2.484,19.227,6.9l-6.808,7.911c-3.496-3.036-7.176-4.601-11.592-4.601c-8.463,0-14.719,6.44-14.719,23
		c0,16.007,6.164,22.723,14.903,22.723c5.336,0,9.016-2.484,12.695-5.336l6.256,8.004C103.031,93.528,96.315,97.392,87.484,97.392z
		 M137.993,97.392c-17.479,0-28.335-12.051-28.335-33.302c0-20.791,10.855-33.303,28.335-33.303
		c17.479,0,28.242,11.959,28.242,33.303C166.235,84.973,155.472,97.392,137.993,97.392z M197.241,74H190v22h-14V32h20.137
		c16.191,0,26.126,6.648,26.126,20.539C222.264,67.259,211.776,74,197.241,74z M256.303,97.392
		c-17.479,0-28.335-12.051-28.335-33.302c0-20.791,10.855-33.303,28.335-33.303c17.479,0,28.242,11.959,28.242,33.303
		C284.545,84.973,273.782,97.392,256.303,97.392z M312.332,97.392c-10.579,0-18.307-3.771-23.551-8.923l6.992-7.636
		c4.6,3.955,9.66,6.348,16.191,6.348s10.947-3.128,10.947-8.74c0-5.06-2.484-7.268-12.144-10.211
		c-13.799-4.323-19.319-9.844-19.319-19.503c0-10.855,9.384-17.939,22.263-17.939c9.476,0,15.916,2.852,21.435,8.004l-6.439,7.451
		c-4.508-3.68-8.924-5.336-14.076-5.336c-5.52,0-9.292,2.393-9.292,6.9c0,4.416,2.392,6.256,12.788,9.475
		c11.5,3.681,18.859,8.465,18.859,20.239C336.987,89.204,327.788,97.392,312.332,97.392z M360,96h-14V32h14V96z M414.081,43H398v53
		h-14V43h-16V32h47.553L414.081,43z M436,96h-14V32h14V96z M474.616,97.392c-17.479,0-28.334-12.051-28.334-33.302
		c0-20.791,10.855-33.303,28.334-33.303c17.479,0,28.243,11.959,28.243,33.303C502.859,84.973,492.096,97.392,474.616,97.392z
		 M561,96h-17.293l-20.393-50.546C524.05,51.158,525,59.398,525,71.173V96h-12V32h17.092l20.678,50.727
		c-0.645-4.323-1.77-13.025-1.77-22.501V32h12V96z"/>
</g>
</svg>
