<?xml version="1.0" encoding="utf-8"?>
<!-- Generator: Adobe Illustrator 16.0.0, SVG Export Plug-In . SVG Version: 6.00 Build 0)  -->
<!DOCTYPE svg PUBLIC "-//W3C//DTD SVG 1.1//EN" "http://www.w3.org/Graphics/SVG/1.1/DTD/svg11.dtd">
<svg version="1.1" id="Layer_1" xmlns="http://www.w3.org/2000/svg" xmlns:xlink="http://www.w3.org/1999/xlink" x="0px" y="0px"
	 width="682px" height="129px" viewBox="0 0 682 129" enable-background="new 0 0 682 129" xml:space="preserve">
<rect display="none" width="682" height="129"/>
<g>
	<g>
		<g>
			<path fill="#000000" d="M679,0H3C1.343,0,0,1.344,0,3v123c0,1.657,1.343,3,3,3h676c1.657,0,3-1.343,3-3V3
				C682,1.344,680.657,0,679,0z M673,118.349c0,1.464-1.312,2.651-2.931,2.651H9.931C8.312,121,7,119.812,7,118.349V9.651
				C7,8.188,8.312,7,9.931,7h660.139C671.688,7,673,8.188,673,9.651V118.349z"/>
		</g>
	</g>
	<g>
		<path fill="#000000" d="M271.821,42.528c-5.489,0-9.627,1.847-12.416,5.541c-2.789,3.693-4.183,9.175-4.183,16.442
			c0,7.27,1.379,12.743,4.139,16.421c2.759,3.679,6.882,5.519,12.371,5.519c11.006,0,16.51-7.313,16.51-21.939
			C288.242,49.856,282.768,42.528,271.821,42.528z"/>
		<path fill="#000000" d="M518.265,42.528c-5.489,0-9.628,1.847-12.416,5.541c-2.789,3.693-4.184,9.175-4.184,16.442
			c0,7.27,1.38,12.743,4.139,16.421c2.76,3.679,6.883,5.519,12.371,5.519c11.007,0,16.51-7.313,16.51-21.939
			C534.685,49.856,529.211,42.528,518.265,42.528z"/>
		<path fill="#000000" d="M142.057,42.528c-5.489,0-9.627,1.847-12.416,5.541c-2.789,3.693-4.183,9.175-4.183,16.442
			c0,7.27,1.379,12.743,4.139,16.421c2.759,3.679,6.882,5.519,12.371,5.519c11.006,0,16.51-7.313,16.51-21.939
			C158.478,49.856,153.004,42.528,142.057,42.528z"/>
		<path fill="#000000" d="M214.793,45.502c-1.765-1.543-4.532-2.502-8.299-2.502H200v20h4.759c4.242,0,7.416-0.994,9.523-2.671
			c2.106-1.676,3.16-4.288,3.16-7.492C217.441,49.604,216.558,47.045,214.793,45.502z"/>
		<path fill="#000000" d="M663.137,14H17.864C16.282,14,15,15.052,15,16.349v96.303c0,1.297,1.282,2.349,2.864,2.349h645.273
			c1.581,0,2.863-1.052,2.863-2.349V16.349C666,15.052,664.718,14,663.137,14z M84.37,86.54c4.568,0,9.63-1.142,16.63-3.427v11.57
			c-5,2.225-11.334,3.337-17.92,3.337c-9.464,0-16.718-2.87-21.731-8.61c-5.014-5.74-7.528-13.98-7.528-24.72
			c0-6.765,1.227-12.69,3.69-17.778c2.462-5.088,5.998-8.989,10.611-11.704c4.613-2.714,10.019-4.071,16.219-4.071
			c6.319,0,12.667,1.528,19.046,4.583l-4.45,11.215c-2.433-1.157-4.881-2.166-7.343-3.026c-2.463-0.86-4.88-1.291-7.254-1.291
			c-5.192,0-9.211,1.951-12.06,5.853s-4.257,9.338-4.257,16.31C68.023,79.286,73.482,86.54,84.37,86.54z M164.931,89.343
			c-5.34,5.785-12.994,8.678-22.962,8.678s-17.623-2.893-22.962-8.678c-5.34-5.784-8.01-14.091-8.01-24.92
			c0-10.828,2.677-19.098,8.033-24.809c5.354-5.711,13.031-8.566,23.029-8.566c9.998,0,17.645,2.878,22.94,8.633
			c5.296,5.756,7.943,14.033,7.943,24.831C172.94,75.281,170.271,83.559,164.931,89.343z M224.806,68.433
			C220.43,72.142,214.208,74,206.138,74H200v23h-14V32h21.206c7.891,0,13.891,1.734,18,5.131c4.109,3.396,6.164,8.482,6.164,15.217
			C231.37,59.35,229.182,64.725,224.806,68.433z M294.694,89.343c-5.34,5.785-12.994,8.678-22.962,8.678s-17.623-2.893-22.962-8.678
			c-5.34-5.784-8.01-14.091-8.01-24.92c0-10.828,2.677-19.098,8.033-24.809c5.354-5.711,13.031-8.566,23.029-8.566
			c9.998,0,17.645,2.878,22.94,8.633c5.296,5.756,7.943,14.033,7.943,24.831C302.704,75.281,300.034,83.559,294.694,89.343z
			 M348.251,92.948c-4.228,3.382-10.201,5.072-17.736,5.072c-6.942,0-12.515-1.305-18.515-3.916V81.289
			c5,1.958,8.197,3.337,11.239,4.138c3.04,0.802,5.867,1.202,8.389,1.202c3.026,0,5.37-0.579,6.987-1.735
			c1.617-1.157,2.438-2.878,2.438-5.162c0-1.275-0.351-2.41-1.063-3.404c-0.712-0.994-1.755-1.95-3.135-2.87
			c-1.379-0.92-4.189-2.389-8.431-4.406c-3.976-1.869-6.957-3.663-8.944-5.385c-1.988-1.72-3.575-3.723-4.761-6.007
			c-1.187-2.284-1.78-4.954-1.78-8.011c0-5.755,1.951-10.279,5.852-13.572c3.901-3.293,9.293-4.939,16.176-4.939
			c3.382,0,6.609,0.4,9.679,1.201s6.281,1.929,9.635,3.382l-4.451,10.725c-3.471-1.424-6.341-2.417-8.61-2.981
			c-2.27-0.562-4.502-0.846-6.697-0.846c-2.611,0-4.614,0.609-6.008,1.825c-1.395,1.217-2.091,2.804-2.091,4.762
			c0,1.217,0.282,2.276,0.845,3.182s1.461,1.78,2.692,2.625c1.231,0.846,4.146,2.366,8.745,4.562
			c6.082,2.908,10.25,5.822,12.504,8.744c2.255,2.923,3.382,6.505,3.382,10.747C354.592,84.938,352.479,89.565,348.251,92.948z
			 M391,39.903l-8,3.648v42.098l8,3.649V97h-30v-7.701l8-3.649V43.552l-8-3.648V32h30V39.903z M445,44h-18v53h-14V44h-18V32h50V44z
			 M479,39.903l-8,3.648v42.098l8,3.649V97h-30v-7.701l8-3.649V43.552l-8-3.648V32h30V39.903z M541.138,89.343
			c-5.34,5.785-12.994,8.678-22.963,8.678c-9.968,0-17.622-2.893-22.962-8.678c-5.34-5.784-8.01-14.091-8.01-24.92
			c0-10.828,2.677-19.098,8.032-24.809c5.354-5.711,13.031-8.566,23.029-8.566c9.997,0,17.644,2.878,22.939,8.633
			c5.296,5.756,7.943,14.033,7.943,24.831C549.147,75.281,546.478,83.559,541.138,89.343z M620,97h-17.185l-28.303-49h-0.4
			C574.676,57,575,62.807,575,66.515V97h-12V32h17.031l28.258,49h0.312C608.155,72,608,66.366,608,62.865V32h12V97z"/>
	</g>
</g>
</svg>
