<?xml version="1.0" encoding="utf-8"?>
<!-- Generator: Adobe Illustrator 16.0.0, SVG Export Plug-In . SVG Version: 6.00 Build 0)  -->
<!DOCTYPE svg PUBLIC "-//W3C//DTD SVG 1.1//EN" "http://www.w3.org/Graphics/SVG/1.1/DTD/svg11.dtd">
<svg version="1.1" id="Layer_1" xmlns="http://www.w3.org/2000/svg" xmlns:xlink="http://www.w3.org/1999/xlink" x="0px" y="0px"
	 width="522.396px" height="144px" viewBox="0 0 522.396 144" enable-background="new 0 0 522.396 144" xml:space="preserve">
<path d="M517.396,0H5C2.239,0,0,2.239,0,5v134c0,2.762,2.239,5,5,5h512.396c2.761,0,5-2.238,5-5V5
	C522.396,2.239,520.157,0,517.396,0z M517.334,134c0,2.762-2.239,5-5,5H9.863c-2.761,0-5-2.238-5-5V9.896c0-2.761,2.239-5,5-5
	h502.471c2.761,0,5,2.239,5,5V134z"/>
<g>
	<path d="M211.738,62.861c0-5.471-3.169-7.698-10.48-7.698h-5.498v15.906h6.21C208.178,71.068,211.738,68.778,211.738,62.861z"/>
	<path d="M293.368,54.654c-7.438,0-12.29,5.153-12.29,17.813s5.045,17.622,12.29,17.622c7.506,0,12.292-4.962,12.292-17.686
		C305.66,59.807,301.003,54.654,293.368,54.654z"/>
	<path d="M505.08,11.5H17.181c-2.735,0-4.953,2.182-4.953,4.871v111.217c0,2.691,2.218,4.871,4.953,4.871H505.08
		c2.734,0,4.952-2.18,4.952-4.871V16.371C510.032,13.682,507.814,11.5,505.08,11.5z M107.465,80.229
		c0,8.716-5.628,14.824-15.655,14.824c-10.156,0-15.526-6.108-15.526-14.824V50.455h6.145v29.33c0,6.807,3.04,10.179,9.381,10.179
		c6.404,0,9.446-3.372,9.446-10.179v-29.33h6.21L107.465,80.229L107.465,80.229z M130.037,95.053c-6.404,0-11.451-2.1-15.137-5.661
		l3.43-3.754c3.3,2.736,6.792,4.454,11.644,4.454c5.24,0,9.575-2.545,9.575-7.825c0-4.263-2.07-6.172-9.64-8.462
		c-8.668-2.609-13.198-5.854-13.198-12.661c0-6.743,5.822-11.451,14.04-11.451c6.145,0,10.027,1.782,13.778,5.09l-3.364,3.69
		c-3.364-2.672-6.469-3.817-10.157-3.817c-4.463,0-8.022,2.036-8.022,6.235c0,3.69,1.747,5.472,9.769,7.889
		c7.117,2.164,13.198,4.899,13.198,13.297C145.953,89.709,140.066,95.053,130.037,95.053z M179.654,94.289h-24.648V50.455h24.131
		l-0.711,4.835h-17.275v14.314h15.009v4.834h-15.009v15.015h18.502V94.289L179.654,94.289z M213.355,94.289L202.68,75.712h-6.921
		v18.577h-6.146V50.455h11.709c11.127,0,16.949,4.2,16.949,12.406c0,6.171-3.234,9.862-9.639,11.77l12.033,19.658H213.355z
		 M269.631,94.289h-23.743V50.455h6.147V89.01h18.306L269.631,94.289z M293.368,95.053c-11.125,0-18.824-7.889-18.824-22.585
		c0-14.442,7.698-22.775,18.824-22.775c11.194,0,18.826,7.953,18.826,22.712C312.194,86.91,304.562,95.053,293.368,95.053z
		 M352.559,91.173c-4.076,2.354-8.734,3.88-15.01,3.88c-11.062,0-18.243-7.569-18.243-22.712c0-14.76,9.186-22.649,19.213-22.649
		c6.015,0,9.703,1.718,13.521,4.834l-3.622,3.69c-3.104-2.481-5.756-3.563-9.767-3.563c-6.407,0-12.812,4.771-12.812,17.686
		c0,12.596,4.333,17.75,12.161,17.75c2.977,0,5.951-0.572,8.477-2.036V74.885h-7.895l-0.712-4.899h14.688L352.559,91.173
		L352.559,91.173z M386.322,94.289h-6.146V50.455h6.146V94.289z M430.504,94.289h-8.214l-18.115-37.217
		c0.323,3.626,0.842,8.97,0.842,17.114v20.104h-5.757V50.455h8.021l18.309,37.282c-0.13-1.018-0.842-8.016-0.842-13.36V50.455h5.756
		V94.289z"/>
</g>
</svg>
