<?xml version="1.0" encoding="utf-8"?>
<!-- Generator: Adobe Illustrator 16.0.0, SVG Export Plug-In . SVG Version: 6.00 Build 0)  -->
<!DOCTYPE svg PUBLIC "-//W3C//DTD SVG 1.1//EN" "http://www.w3.org/Graphics/SVG/1.1/DTD/svg11.dtd">
<svg version="1.1" id="Layer_1" xmlns="http://www.w3.org/2000/svg" xmlns:xlink="http://www.w3.org/1999/xlink" x="0px" y="0px"
	 width="415.062px" height="144px" viewBox="0 0 415.062 144" enable-background="new 0 0 415.062 144" xml:space="preserve">
	<title>Log Out</title>
<path d="M410.062,0H5C2.239,0,0,2.239,0,5v134c0,2.762,2.239,5,5,5h405.062c2.762,0,5-2.238,5-5V5
	C415.062,2.239,412.824,0,410.062,0z M409.896,134.062c0,2.762-2.238,5-5,5h-395c-2.761,0-5-2.238-5-5V9.562c0-2.761,2.239-5,5-5
	h395c2.762,0,5,2.239,5,5V134.062z"/>
<g>
	<path d="M122.579,54.385c-7.475,0-12.35,5.265-12.35,18.201s5.07,18.006,12.35,18.006c7.541,0,12.351-5.07,12.351-18.071
		C134.929,59.65,130.249,54.385,122.579,54.385z"/>
	<path d="M225.798,54.385c-7.476,0-12.351,5.265-12.351,18.201s5.07,18.006,12.351,18.006c7.54,0,12.351-5.07,12.351-18.071
		C238.148,59.65,233.468,54.385,225.798,54.385z"/>
	<path d="M399.896,10.062H14.646c-2.761,0-5,2.239-5,5v114c0,2.762,2.239,5,5,5h385.25c2.762,0,5-2.238,5-5v-114
		C404.896,12.301,402.657,10.062,399.896,10.062z M98.725,94.881H74.869V50.095h6.175v39.392H99.44L98.725,94.881z M122.579,95.661
		c-11.18,0-18.916-8.06-18.916-23.076c0-14.755,7.735-23.271,18.916-23.271c11.246,0,18.916,8.125,18.916,23.206
		C141.495,87.341,133.824,95.661,122.579,95.661z M182.054,91.696c-4.095,2.405-8.775,3.965-15.081,3.965
		c-11.115,0-18.331-7.735-18.331-23.206c0-15.081,9.23-23.141,19.306-23.141c6.045,0,9.75,1.755,13.586,4.94l-3.641,3.77
		c-3.12-2.535-5.785-3.64-9.815-3.64c-6.435,0-12.87,4.875-12.87,18.071c0,12.871,4.355,18.136,12.22,18.136
		c2.99,0,5.98-0.585,8.515-2.08V75.056h-7.93l-0.715-5.005h14.755V91.696z M225.798,95.661c-11.181,0-18.916-8.06-18.916-23.076
		c0-14.755,7.735-23.271,18.916-23.271c11.245,0,18.915,8.125,18.915,23.206C244.713,87.341,237.043,95.661,225.798,95.661z
		 M285.468,80.516c0,8.905-5.655,15.146-15.73,15.146c-10.206,0-15.601-6.24-15.601-15.146V50.095h6.175v29.966
		c0,6.956,3.056,10.4,9.426,10.4c6.435,0,9.49-3.445,9.49-10.4V50.095h6.24V80.516z M323.622,55.36h-12.416v39.521h-6.175V55.36
		H292.29v-5.265h31.981L323.622,55.36z"/>
</g>
</svg>
